<?xml version="1.0" encoding="UTF-8" standalone="no"?><!DOCTYPE svg PUBLIC "-//W3C//DTD SVG 1.1//EN" "http://www.w3.org/Graphics/SVG/1.1/DTD/svg11.dtd"><svg width="100%" height="100%" viewBox="0 0 851 851" version="1.1" xmlns="http://www.w3.org/2000/svg" xmlns:xlink="http://www.w3.org/1999/xlink" xml:space="preserve" xmlns:serif="http://www.serif.com/" style="fill-rule:evenodd;clip-rule:evenodd;stroke-linejoin:round;stroke-miterlimit:2;"><path d="M505.387,277.404l0,446.643c0,69.733 -56.614,126.347 -126.347,126.347l-252.694,0c-69.733,0 -126.347,-56.614 -126.347,-126.347l0,-446.643c0,-69.733 56.614,-126.347 126.347,-126.347l252.694,0c69.733,0 126.347,56.614 126.347,126.347Z" style="fill:#5b5b5b;"/><path d="M850.394,126.347l0,446.643c0,69.733 -56.614,126.347 -126.347,126.347l-252.694,0c-69.733,0 -126.347,-56.614 -126.347,-126.347l0,-446.643c0,-69.733 56.614,-126.347 126.347,-126.347l252.694,0c69.733,0 126.347,56.614 126.347,126.347Z" style="fill:#ebebeb;"/><path d="M555.596,311.999l21.64,26.464c5.972,7.303 4.891,18.08 -2.412,24.052l-258.208,211.142c-7.303,5.972 -18.08,4.891 -24.052,-2.412l-21.64,-26.464c-5.972,-7.303 -4.891,-18.08 2.412,-24.052l258.208,-211.142c7.303,-5.972 18.08,-4.891 24.052,2.412Z" style="fill:#c7c7c7;"/><path d="M530.247,172.347l21.64,26.464c5.972,7.303 4.891,18.08 -2.412,24.052l-258.208,211.142c-7.303,5.972 -18.08,4.891 -24.052,-2.412l-21.64,-26.464c-5.972,-7.303 -4.891,-18.08 2.412,-24.052l258.208,-211.142c7.303,-5.972 18.08,-4.891 24.052,2.412Z" style="fill:#c7c7c7;"/><path d="M583.179,463.964l21.64,26.464c5.972,7.303 4.891,18.08 -2.412,24.052l-258.208,211.142c-7.303,5.972 -18.08,4.891 -24.052,-2.412l-21.64,-26.464c-5.972,-7.303 -4.891,-18.08 2.412,-24.052l258.208,-211.142c7.303,-5.972 18.08,-4.891 24.052,2.412Z" style="fill:#c7c7c7;"/></svg>